<svg aria-hidden="true" style="position: absolute; width: 0; height: 0; overflow: hidden;" version="1.1" xmlns="http://www.w3.org/2000/svg" xmlns:xlink="http://www.w3.org/1999/xlink">
<defs>
<symbol id="icon-alert-circle" viewBox="0 0 24 24">
<path d="M23 12c0-3.037-1.232-5.789-3.222-7.778s-4.741-3.222-7.778-3.222-5.789 1.232-7.778 3.222-3.222 4.741-3.222 7.778 1.232 5.789 3.222 7.778 4.741 3.222 7.778 3.222 5.789-1.232 7.778-3.222 3.222-4.741 3.222-7.778zM21 12c0 2.486-1.006 4.734-2.636 6.364s-3.878 2.636-6.364 2.636-4.734-1.006-6.364-2.636-2.636-3.878-2.636-6.364 1.006-4.734 2.636-6.364 3.878-2.636 6.364-2.636 4.734 1.006 6.364 2.636 2.636 3.878 2.636 6.364zM11 8v4c0 0.552 0.448 1 1 1s1-0.448 1-1v-4c0-0.552-0.448-1-1-1s-1 0.448-1 1zM12 17c0.552 0 1-0.448 1-1s-0.448-1-1-1-1 0.448-1 1 0.448 1 1 1z"></path>
</symbol>
<symbol id="icon-magnifying-glass" viewBox="0 0 20 20">
<path d="M17.545 15.467l-3.779-3.779c0.57-0.935 0.898-2.035 0.898-3.21 0-3.417-2.961-6.377-6.378-6.377s-6.186 2.769-6.186 6.186c0 3.416 2.961 6.377 6.377 6.377 1.137 0 2.2-0.309 3.115-0.844l3.799 3.801c0.372 0.371 0.975 0.371 1.346 0l0.943-0.943c0.371-0.371 0.236-0.84-0.135-1.211zM4.004 8.287c0-2.366 1.917-4.283 4.282-4.283s4.474 2.107 4.474 4.474c0 2.365-1.918 4.283-4.283 4.283s-4.473-2.109-4.473-4.474z"></path>
</symbol>
<symbol id="icon-bug_report" viewBox="0 0 24 24">
<path d="M14.016 12v-2.016h-4.031v2.016h4.031zM14.016 15.984v-1.969h-4.031v1.969h4.031zM20.016 8.016v1.969h-2.109q0.094 0.656 0.094 1.031v0.984h2.016v2.016h-2.016v0.984q0 0.328-0.094 0.984h2.109v2.016h-2.813q-0.797 1.359-2.18 2.18t-3.023 0.82-3.023-0.82-2.18-2.18h-2.813v-2.016h2.109q-0.094-0.656-0.094-0.984v-0.984h-2.016v-2.016h2.016v-0.984q0-0.375 0.094-1.031h-2.109v-1.969h2.813q0.703-1.172 1.828-1.969l-1.641-1.641 1.406-1.406 2.203 2.156q0.703-0.141 1.406-0.141t1.406 0.141l2.203-2.156 1.406 1.406-1.641 1.641q1.172 0.797 1.828 1.969h2.813z"></path>
</symbol>
<symbol id="icon-fastfood" viewBox="0 0 24 24">
<path d="M1.031 17.016h15v1.969h-15v-1.969zM16.031 15h-15.047q0-2.297 1.547-3.844t3.75-1.922 4.43 0 3.773 1.922 1.547 3.844zM0.984 21.984v-0.984h15.047v0.984q0 0.422-0.305 0.703t-0.727 0.281h-12.984q-0.422 0-0.727-0.281t-0.305-0.703zM18.047 22.969v-8.016q0-2.953-2.438-5.297-1.453-1.453-4.266-2.25l-0.281-2.344h4.969v-4.078h1.969v4.078h5.016l-1.688 16.453q-0.094 0.609-0.539 1.031t-1.055 0.422h-1.688z"></path>
</symbol>
<symbol id="icon-emoji_food_beverage" viewBox="0 0 24 24">
<path d="M3.984 18.984h16.031v2.016h-16.031v-2.016zM20.016 8.016v-3h-2.016v3h2.016zM20.016 3q0.844 0 1.406 0.586t0.563 1.43v3q0 0.844-0.563 1.406t-1.406 0.563h-2.016v3q0 1.641-1.172 2.836t-2.813 1.195h-6q-1.641 0-2.836-1.195t-1.195-2.836v-9.984h4.031v2.391l-1.828 1.453q-0.188 0.141-0.188 0.375v4.266q0 0.516 0.516 0.516h3.984q0.516 0 0.516-0.516v-4.266q0-0.234-0.188-0.375l-1.828-1.453v-2.391h11.016z"></path>
</symbol>
<symbol id="icon-question" viewBox="0 0 20 20">
<path d="M10 20c-5.523 0-10-4.477-10-10s4.477-10 10-10v0c5.523 0 10 4.477 10 10s-4.477 10-10 10v0zM12 7c0 0.28-0.21 0.8-0.42 1l-1.58 1.58c-0.57 0.58-1 1.6-1 2.42v1h2v-1c0-0.29 0.21-0.8 0.42-1l1.58-1.58c0.57-0.58 1-1.6 1-2.42 0-2.209-1.791-4-4-4s-4 1.791-4 4v0h2c0-1.105 0.895-2 2-2s2 0.895 2 2v0zM9 15v2h2v-2h-2z"></path>
</symbol>
<symbol id="icon-notifications-outline" viewBox="0 0 20 20">
<path d="M6 8v7h8v-7c0-2.209-1.791-4-4-4s-4 1.791-4 4v0zM8.030 2.33c-0.016-0.095-0.025-0.204-0.025-0.315 0-1.105 0.895-2 2-2s2 0.895 2 2c0 0.111-0.009 0.22-0.027 0.327l0.002-0.012c2.361 0.843 4.020 3.060 4.020 5.664 0 0.002 0 0.004 0 0.006v-0 6l3 2v1h-18v-1l3-2v-6c0-0.001 0-0.002 0-0.003 0-2.608 1.664-4.827 3.988-5.654l0.042-0.013zM12 18c0 1.105-0.895 2-2 2s-2-0.895-2-2v0h4z"></path>
</symbol>
<symbol id="icon-cup" viewBox="0 0 20 20">
<path d="M10 1c-4.279 0-6.94 1.41-6.795 2.555l1.442 13.467c0.058 0.46 2.221 1.976 5.353 1.978 3.131-0.002 5.295-1.518 5.351-1.979l1.442-13.467c0.145-1.144-2.514-2.554-6.793-2.554zM10 5.291c-3.132-0.002-5.353-1.117-5.353-1.535-0.001-0.414 2.222-1.531 5.353-1.529 3.131-0.002 5.354 1.115 5.351 1.529 0 0.418-2.22 1.533-5.351 1.535z"></path>
</symbol>
<symbol id="icon-coffee" viewBox="0 0 32 32">
<path d="M24 12.998v-2c0-0.553-0.447-1-1-1h-22c-0.553 0-1 0.447-1 1v14.001c0 0.18 0.061 0.339 0.143 0.485 0.697 3.708 3.947 6.516 7.857 6.516h8c2.521 0 4.756-1.177 6.221-3h1.779c4.418 0 8-3.583 8-8.001 0-4.419-3.582-8.001-8-8.001zM24 24.999v-8.001c2.209 0 4 1.791 4 4.001 0 2.209-1.791 4-4 4zM5.198 8.504c-0.149 0.27-0.132 0.493 0.152 0.493 0.282 0 0.669-0.224 0.766-0.491 0.993-2.589-4.222-4.694-1.071-7.887 0.323-0.331 0.454-0.617 0.168-0.619-0.287-0.003-0.876 0.27-1.186 0.592-3.036 3.119 2.583 5.311 1.171 7.912zM8.975 8.516c-0.037 0.258 0.121 0.481 0.402 0.481 0.279 0 0.55-0.223 0.578-0.479 0.221-1.854-1.261-3.555-0.371-5.159 0.014-0.29-0.327-0.578-0.769-0.617s-0.834 0.179-0.849 0.467c-0.107 2.092 1.27 3.427 1.009 5.307zM13.402 8.997c0.279 0 0.5-0.223 0.553-0.47 0.507-2.396 4.648-3.134 1.526-7.413-0.334-0.442-0.927-0.848-1.214-0.852-0.288-0.005-0.313 0.39-0.122 0.827 3.107 2.932 0.124 5.036-1.197 7.438-0.044 0.247 0.176 0.47 0.454 0.47zM17.429 8.997c0.28 0 0.468-0.225 0.549-0.488 0.76-2.543 9.339-4.187 2.125-7.687-0.752-0.356-1.728-0.654-1.941-0.642-0.217 0.015 0.294 0.384 0.936 0.787 5.897 3.865 0.402 2.699-2.119 7.55-0.082 0.255 0.171 0.48 0.45 0.48z"></path>
</symbol>
<symbol id="icon-cake" viewBox="0 0 32 32">
<path d="M25.5 9c-0.295 0-0.58 0.037-0.857 0.097-0.123-1.821-1.624-3.264-3.476-3.264-0.415 0-0.808 0.085-1.177 0.218-1.15-1.828-3.172-3.051-5.49-3.051-3.522 0-6.373 2.807-6.48 6.303-0.469-0.193-0.981-0.303-1.52-0.303-2.209 0-4 1.791-4 4 0 2.152 1.703 3.894 3.833 3.982l1.604-1.604 1.622 1.622h0.758l1.621-1.622 1.621 1.622h0.758l1.621-1.622 1.621 1.622h0.758l1.621-1.622 1.621 1.622h0.758l1.621-1.622 1.616 1.616c2.183-0.029 3.946-1.803 3.946-3.994 0-2.209-1.791-4-4-4zM24 16.566l-1.434 1.434h-1.258l-1.371-1.371-1.371 1.371h-1.258l-1.371-1.371-1.371 1.371h-1.258l-1.371-1.371-1.371 1.371h-1.257l-1.371-1.371-1.372 1.371h-0.066l2.65 11h13.625l2.725-11h-0.066l-1.434-1.434zM11.5 28l-2.083-9h1l2.083 9h-1zM13.5 28l-1.062-9h1l1.062 9h-1zM16.5 28h-1v-9h1v9zM17.5 28l1.062-9h1l-1.062 9h-1zM20.5 28h-1l2.062-9h1l-2.062 9z"></path>
</symbol>
<symbol id="icon-mug" viewBox="0 0 32 32">
<path d="M25.761 25.005h-2.724v2.164c0 1.546-1.378 2.798-2.924 2.798h-10.308c-1.546 0-2.799-1.252-2.799-2.798v-15.1h2.998v14.905h1.988l0.002-14.905c0.534 0.385 1.334 0.671 2.008 0.823v14.083h1.988v-14.025c0.745-0.123 1.428-0.403 2.016-0.807v14.832h1.988v-14.906h5.766c1.236 0 2.239 1.002 2.239 2.239v8.457c0.001 1.237-1.002 2.24-2.238 2.24zM25.991 14.010h-2.955v8.985h2.955v-8.985zM21.222 11.142c-0.979 0-1.863-0.391-2.517-1.021-0.812 1.147-2.142 1.902-3.653 1.902-1.457 0-2.738-0.707-3.557-1.784-0.648 0.599-1.508 0.973-2.46 0.973-1.755 0-3.219-1.243-3.562-2.896-0.534-0.35-0.887-0.952-0.887-1.637 0-1.082 0.877-1.959 1.959-1.959 0.080 0 0.157 0.014 0.234 0.023 0.605-0.481 1.359-0.785 2.189-0.801 0.373-1.106 1.408-1.909 2.641-1.909 0.949 0 1.784 0.475 2.291 1.197 0.368-0.1 0.751-0.162 1.151-0.162 0.418 0 0.816 0.070 1.199 0.179 0.505-0.732 1.348-1.214 2.304-1.214 1.207 0 2.226 0.768 2.619 1.838 0.017 0 0.031-0.005 0.048-0.005 2.010 0 3.639 1.629 3.639 3.638s-1.629 3.638-3.638 3.638z"></path>
</symbol>
<symbol id="icon-drink11" viewBox="0 0 32 32">
<path d="M23.055 8.906c0.557 0 1.008 0.451 1.008 1.008l-1.827 20.093c0 0.557-0.451 1.008-1.008 1.008h-10.457c-0.557 0-1.008-0.451-1.008-1.008l-1.825-20.093c0-0.557 0.451-1.008 1.008-1.008h9.010l1.066-5.436 4.839-2.485-0.348 1.298-3.592 1.801-0.938 4.822h4.072zM17.514 15.961h4.029l-1.134 13.038h-8.818l-1.134-13.038h6.029l1.259-6.047h-8.8l1.826 20.093h10.456l1.827-20.093h-4.282l-1.258 6.047z"></path>
</symbol>
<symbol id="icon-droplet" viewBox="0 0 32 32">
<path d="M27.020 14.786c-2.055-5.732-6.41-10.88-11.020-14.786-4.61 3.907-8.965 9.054-11.020 14.786-1.271 3.545-1.396 7.393 0.393 10.794 2.058 3.911 6.207 6.42 10.626 6.42s8.569-2.509 10.626-6.42c1.79-3.401 1.664-7.249 0.393-10.794zM23.086 23.717c-1.369 2.602-4.15 4.283-7.086 4.283-1.723 0-3.391-0.579-4.753-1.583 0.414 0.054 0.832 0.083 1.254 0.083 3.67 0 7.146-2.1 8.856-5.351 1.402-2.665 1.281-5.433 0.746-7.636 0.455 0.88 0.841 1.756 1.151 2.623 0.706 1.971 1.251 4.886-0.168 7.581z"></path>
</symbol>
<symbol id="icon-cart" viewBox="0 0 32 32">
<path d="M12 29c0 1.657-1.343 3-3 3s-3-1.343-3-3c0-1.657 1.343-3 3-3s3 1.343 3 3z"></path>
<path d="M32 29c0 1.657-1.343 3-3 3s-3-1.343-3-3c0-1.657 1.343-3 3-3s3 1.343 3 3z"></path>
<path d="M32 16v-12h-24c0-1.105-0.895-2-2-2h-6v2h4l1.502 12.877c-0.915 0.733-1.502 1.859-1.502 3.123 0 2.209 1.791 4 4 4h24v-2h-24c-1.105 0-2-0.895-2-2 0-0.007 0-0.014 0-0.020l26-3.98z"></path>
</symbol>
<symbol id="icon-coin-dollar" viewBox="0 0 32 32">
<path d="M15 2c-8.284 0-15 6.716-15 15s6.716 15 15 15c8.284 0 15-6.716 15-15s-6.716-15-15-15zM15 29c-6.627 0-12-5.373-12-12s5.373-12 12-12c6.627 0 12 5.373 12 12s-5.373 12-12 12zM16 16v-4h4v-2h-4v-2h-2v2h-4v8h4v4h-4v2h4v2h2v-2h4l-0-8h-4zM14 16h-2v-4h2v4zM18 22h-2v-4h2v4z"></path>
</symbol>
<symbol id="icon-history" viewBox="0 0 34 32">
<path d="M20 2c7.732 0 14 6.268 14 14s-6.268 14-14 14v-3c2.938 0 5.701-1.144 7.778-3.222s3.222-4.84 3.222-7.778c0-2.938-1.144-5.701-3.222-7.778s-4.84-3.222-7.778-3.222c-2.938 0-5.701 1.144-7.778 3.222-1.598 1.598-2.643 3.601-3.041 5.778h5.819l-7 8-7-8h5.143c0.971-6.784 6.804-12 13.857-12zM26 14v4h-8v-10h4v6z"></path>
</symbol>
<symbol id="icon-user" viewBox="0 0 32 32">
<path d="M18 22.082v-1.649c2.203-1.241 4-4.337 4-7.432 0-4.971 0-9-6-9s-6 4.029-6 9c0 3.096 1.797 6.191 4 7.432v1.649c-6.784 0.555-12 3.888-12 7.918h28c0-4.030-5.216-7.364-12-7.918z"></path>
</symbol>
<symbol id="icon-cog" viewBox="0 0 32 32">
<path d="M29.181 19.070c-1.679-2.908-0.669-6.634 2.255-8.328l-3.145-5.447c-0.898 0.527-1.943 0.829-3.058 0.829-3.361 0-6.085-2.742-6.085-6.125h-6.289c0.008 1.044-0.252 2.103-0.811 3.070-1.679 2.908-5.411 3.897-8.339 2.211l-3.144 5.447c0.905 0.515 1.689 1.268 2.246 2.234 1.676 2.903 0.672 6.623-2.241 8.319l3.145 5.447c0.895-0.522 1.935-0.82 3.044-0.82 3.35 0 6.067 2.725 6.084 6.092h6.289c-0.003-1.034 0.259-2.080 0.811-3.038 1.676-2.903 5.399-3.894 8.325-2.219l3.145-5.447c-0.899-0.515-1.678-1.266-2.232-2.226zM16 22.479c-3.578 0-6.479-2.901-6.479-6.479s2.901-6.479 6.479-6.479c3.578 0 6.479 2.901 6.479 6.479s-2.901 6.479-6.479 6.479z"></path>
</symbol>
<symbol id="icon-glass1" viewBox="0 0 32 32">
<path d="M24.306 0.527c-0.174-0.324-0.513-0.527-0.881-0.527h-14.85c-0.368 0-0.707 0.202-0.881 0.527-1.108 2.063-1.694 4.474-1.694 6.973 0 3.294 1.012 6.401 2.849 8.748 1.42 1.814 3.203 3.017 5.151 3.505v10.247h-3c-0.552 0-1 0.448-1 1s0.448 1 1 1h10c0.552 0 1-0.448 1-1s-0.448-1-1-1h-3v-10.247c1.949-0.488 3.732-1.691 5.151-3.505 1.837-2.347 2.849-5.454 2.849-8.748 0-2.499-0.586-4.91-1.694-6.973zM9.191 2h13.619c0.78 1.653 1.191 3.542 1.191 5.5 0 0.168-0.003 0.334-0.009 0.5h-15.981c-0.006-0.166-0.009-0.332-0.009-0.5-0-1.958 0.41-3.847 1.191-5.5z"></path>
</symbol>
<symbol id="icon-bookmarks" viewBox="0 0 32 32">
<path d="M8 4v28l10-10 10 10v-28zM24 0h-20v28l2-2v-24h18z"></path>
</symbol>
<symbol id="icon-exit" viewBox="0 0 32 32">
<path d="M24 20v-4h-10v-4h10v-4l6 6zM22 18v8h-10v6l-12-6v-26h22v10h-2v-8h-16l8 4v18h8v-6z"></path>
</symbol>
<symbol id="icon-arrow-right2" viewBox="0 0 32 32">
<path d="M19.414 27.414l10-10c0.781-0.781 0.781-2.047 0-2.828l-10-10c-0.781-0.781-2.047-0.781-2.828 0s-0.781 2.047 0 2.828l6.586 6.586h-19.172c-1.105 0-2 0.895-2 2s0.895 2 2 2h19.172l-6.586 6.586c-0.39 0.39-0.586 0.902-0.586 1.414s0.195 1.024 0.586 1.414c0.781 0.781 2.047 0.781 2.828 0z"></path>
</symbol>
</defs>
</svg>
